<svg width="1058" height="785" viewBox="0 0 1058 785" fill="none" xmlns="http://www.w3.org/2000/svg">
<g id="undraw_Ride_a_bicycle_2yok 1">
<path id="Background" d="M208.251 148.907C203.729 155.065 201.987 163.725 200.04 171.866C184.361 237.474 145.724 290.245 101.723 327.939C83.0891 343.906 60.4037 365.318 64.4803 393.945C66.6754 409.319 76.3058 420.637 83.4605 433.158C98.4713 459.377 103.34 495.015 96.1854 526.402C88.0487 562.114 65.3056 595.437 72.3447 631.547C76.6854 653.775 91.4239 669.593 105.593 683.189C127.698 704.385 150.507 724.242 174.02 742.759C189.782 755.169 206.551 767.246 224.92 768.82C241.095 770.209 256.939 763.31 272.296 756.502C285.714 750.547 299.471 744.351 310.306 732.423C317.378 724.634 323.015 714.585 330.871 708.213C349.323 693.247 373.023 702.731 394.182 709.14C444.108 724.18 497.541 718.688 545.049 693.636C617.925 655.201 673.47 574.488 744.753 531.181C775.402 512.557 808.741 500.998 837.12 477.011C853.109 463.354 866.849 446.667 877.722 427.703C899.177 390.556 910.78 343.193 907.43 296.83C904.079 250.467 885.305 205.79 855.82 179.618C824.255 151.602 784.389 146.369 748.475 129.55C711.39 112.176 678.397 82.317 641.666 63.6737C611.945 48.6301 579.599 41.2452 547.003 42.0609C514.407 42.8766 482.387 51.8723 453.293 68.3878C413.319 91.0783 372.8 144.017 328.279 148.036C296.558 150.814 233.024 115.177 208.251 148.907Z" fill="url(#paint0_linear)"/>
<g id="Other">
<path id="Vector" d="M387 554.303L344.293 512.159L330.947 525.683L373.654 567.827L387 554.303Z" fill="#6C63FF"/>
<path id="Vector_2" opacity="0.1" d="M387 554.303L344.293 512.159L330.947 525.683L373.654 567.827L387 554.303Z" fill="black"/>
<path id="Vector_3" d="M354.48 491.99C354.48 491.99 379.27 478.91 388.85 470.49C394.617 465.444 400.818 460.917 407.38 456.96L438.48 438.03L503.48 433.03L506.48 444.03C506.48 444.03 511.48 460.03 461.48 474.03C411.48 488.03 386.48 510.03 386.48 510.03C386.48 510.03 354.48 520.99 354.48 491.99Z" fill="#DB8B8B"/>
<path id="Vector_4" opacity="0.1" d="M389.13 507.86C387.36 509.21 386.48 509.99 386.48 509.99C386.48 509.99 354.48 520.99 354.48 491.99C354.48 491.99 356.03 491.17 358.48 489.8C360.955 493.831 364.423 497.16 368.551 499.469C372.679 501.778 377.33 502.99 382.06 502.99H385.45L389.13 507.86Z" fill="black"/>
<path id="Vector_5" opacity="0.05" d="M505.54 449.55C502.76 455.44 493.17 465.12 461.48 473.99C420.87 485.36 396.75 501.99 389.13 507.86C387.36 509.21 386.48 509.99 386.48 509.99C386.48 509.99 354.48 520.99 354.48 491.99C354.48 491.99 356.03 491.17 358.48 489.8C365.91 485.73 381.64 476.8 388.82 470.45C394.586 465.403 400.787 460.875 407.35 456.92L438.45 437.99L450.03 437.1L503.45 432.99L506.45 443.99C506.45 443.99 507.15 446.14 505.54 449.55Z" fill="black"/>
<path id="Vector_6" d="M354.98 485.49L328.48 502.99L406.08 567.99C406.08 567.99 417.48 560.99 411.48 552.99C411.48 552.99 391.48 535.99 390.48 511.99L384.48 503.99H381.09C375.358 503.991 369.767 502.211 365.089 498.897C360.412 495.583 356.88 490.898 354.98 485.49Z" fill="#ABB1D1"/>
<path id="Vector_7" opacity="0.1" d="M505.54 449.55C489.54 441.82 450.48 440.99 450.48 440.99L450.06 437.1L503.48 432.99L506.48 443.99C506.48 443.99 507.15 446.14 505.54 449.55Z" fill="black"/>
<path id="Vector_8" d="M450.48 438.99C450.48 438.99 497.48 439.99 509.48 449.99L503.48 328.99H438.48L450.48 438.99Z" fill="#ABB1D1"/>
<path id="Vector_9" opacity="0.05" d="M450.48 438.49C450.48 438.49 497.48 439.49 509.48 449.49L503.48 328.49H438.48L450.48 438.49Z" fill="black"/>
<path id="Vector_10" d="M488.24 364.95C488.24 364.95 605.89 360.95 608.29 376.16C610.69 391.37 490.64 384.96 490.64 384.96C490.64 384.96 481.04 375.35 488.24 364.95Z" fill="#535461"/>
<path id="Vector_11" opacity="0.05" d="M488.24 364.95C488.24 364.95 605.89 360.95 608.29 376.16C610.69 391.37 490.64 384.96 490.64 384.96C490.64 384.96 481.04 375.35 488.24 364.95Z" fill="black"/>
<path id="Vector_12" d="M393 425.78H372.19V606.66H393V425.78Z" fill="#6C63FF"/>
<path id="Vector_13" opacity="0.1" d="M393 425.77V439.7C386.08 440.6 379 441.17 372.19 441.39V425.77H393Z" fill="black"/>
<path id="Vector_14" d="M391.44 410.78C388.52 410.554 385.616 410.164 382.74 409.61C371.46 407.45 343.02 402.92 335.37 410.61C325.77 420.21 328.97 437.02 354.58 439.42C380.19 441.82 424.21 435.42 433.02 425.81C433.02 425.77 417.09 412.75 391.44 410.78Z" fill="#535461"/>
<path id="Vector_15" d="M387.4 475.4L605.9 407.37L613.1 424.18L389 501.01L387.4 475.4Z" fill="#6C63FF"/>
<path id="Vector_16" d="M452.23 582.65L609.9 427.38L618.7 440.18L468.23 597.05L452.23 582.65Z" fill="#6C63FF"/>
<path id="Vector_17" opacity="0.1" d="M653.58 529.85C648.584 531.142 643.712 532.872 639.02 535.02L629.46 508.31C634.477 506.123 639.644 504.295 644.92 502.84L653.58 529.85Z" fill="black"/>
<path id="Vector_18" d="M680.33 608.26L669.13 614.66L590.99 396.33L587.49 386.56L605.9 376.15L610.51 390.53L680.33 608.26Z" fill="#6C63FF"/>
<path id="Vector_19" opacity="0.1" d="M610.51 390.53L590.99 396.33L587.49 386.56L605.9 376.15L610.51 390.53Z" fill="black"/>
<path id="Vector_20" d="M491.44 407.37L601.09 369.75C601.09 369.75 620.3 372.15 613.09 388.16L502.65 420.97C502.65 420.97 485.85 422.57 491.44 407.37Z" fill="#535461"/>
<path id="Vector_21" opacity="0.1" d="M367.79 615.86C367.789 621.994 367.314 628.119 366.37 634.18C356.77 633.49 346.85 632.49 337.13 631.49C339.289 619.599 339.021 607.394 336.34 595.61C345.81 593.61 355.48 591.7 364.92 589.97C366.833 598.467 367.795 607.15 367.79 615.86Z" fill="black"/>
<path id="Vector_22" opacity="0.1" d="M393 585.38V606.65H372.19V588.65C379.39 587.4 386.39 586.29 393 585.38Z" fill="black"/>
<path id="Vector_23" d="M258.54 615.49C258.54 615.49 426.62 571.49 440.22 588.28C453.82 605.07 468.23 627.49 425.85 635.49C383.47 643.49 255.37 621.88 255.37 621.88L258.54 615.49Z" fill="#6C63FF"/>
<path id="Vector_24" opacity="0.1" d="M341.21 541.37L319.85 560.92C316.067 556.064 311.791 551.614 307.09 547.64L327.03 526.81C332.164 531.249 336.908 536.12 341.21 541.37Z" fill="black"/>
<path id="Vector_25" d="M252.94 606.66L378.59 475.4L382.6 505.81L259.34 618.66L252.94 606.66Z" fill="#6C63FF"/>
<path id="Vector_26" opacity="0.1" d="M251.34 628.27C258.415 628.27 264.15 622.535 264.15 615.46C264.15 608.385 258.415 602.65 251.34 602.65C244.265 602.65 238.53 608.385 238.53 615.46C238.53 622.535 244.265 628.27 251.34 628.27Z" fill="black"/>
<path id="Vector_27" d="M249.73 628.27C256.805 628.27 262.54 622.535 262.54 615.46C262.54 608.385 256.805 602.65 249.73 602.65C242.655 602.65 236.92 608.385 236.92 615.46C236.92 622.535 242.655 628.27 249.73 628.27Z" fill="#535461"/>
<path id="Vector_28" opacity="0.1" d="M675.13 627.07C682.205 627.07 687.94 621.335 687.94 614.26C687.94 607.185 682.205 601.45 675.13 601.45C668.055 601.45 662.32 607.185 662.32 614.26C662.32 621.335 668.055 627.07 675.13 627.07Z" fill="black"/>
<path id="Vector_29" d="M675.93 628.67C683.005 628.67 688.74 622.935 688.74 615.86C688.74 608.785 683.005 603.05 675.93 603.05C668.855 603.05 663.12 608.785 663.12 615.86C663.12 622.935 668.855 628.67 675.93 628.67Z" fill="#535461"/>
<path id="Vector_30" opacity="0.1" d="M448.22 628.27C462.364 628.27 473.83 616.804 473.83 602.66C473.83 588.516 462.364 577.05 448.22 577.05C434.076 577.05 422.61 588.516 422.61 602.66C422.61 616.804 434.076 628.27 448.22 628.27Z" fill="black"/>
<path id="Vector_31" d="M449.83 628.27C463.974 628.27 475.44 616.804 475.44 602.66C475.44 588.516 463.974 577.05 449.83 577.05C435.686 577.05 424.22 588.516 424.22 602.66C424.22 616.804 435.686 628.27 449.83 628.27Z" fill="#535461"/>
<path id="Vector_32" d="M442.992 600.736L442.984 600.742C439.977 602.991 439.362 607.253 441.611 610.26L461.937 637.441C464.186 640.448 468.448 641.063 471.455 638.814L471.463 638.808C474.471 636.559 475.085 632.297 472.836 629.29L452.51 602.109C450.261 599.102 446 598.487 442.992 600.736Z" fill="#6C63FF"/>
<path id="Vector_33" d="M565.48 246.99L563.1 277.1C562.826 280.914 562.876 284.744 563.25 288.55C563.56 291.92 563.25 297.82 559.95 306.82C555.713 318.317 553.523 330.467 553.48 342.72V376.99L530.48 372.99C530.48 372.99 531.48 324.99 527.48 316.99C523.48 308.99 530.48 237.99 530.48 237.99L565.48 246.99Z" fill="#DB8B8B"/>
<path id="Vector_34" opacity="0.05" d="M564.3 261.91L563.1 277.1C562.83 280.911 562.883 284.738 563.26 288.54C563.57 291.91 563.26 297.81 559.96 306.82C555.723 318.317 553.533 330.467 553.49 342.72V376.99L530.49 372.99C530.49 372.99 531.49 324.99 527.49 316.99C524.66 311.32 527.34 274.05 529.15 252.78C529.9 244.03 530.49 237.99 530.49 237.99L565.49 246.99L564.3 261.91Z" fill="black"/>
<path id="Vector_35" d="M451.5 476.99L442.85 526.19C441.759 532.759 440.086 539.218 437.85 545.49C432.78 559.35 436.02 578.78 438.48 589.38C439.57 594.06 440.48 597.02 440.48 597.02L414.48 611.02L406.48 605.02V601.02L405.48 512.02C399.48 498.02 401.48 477.02 405.48 469.02C406.617 466.392 407.417 463.63 407.86 460.8C409.86 450.08 410.48 435.02 410.48 435.02C410.48 435.02 426.48 408.02 445.48 426.02C452.48 432.65 455.14 441.32 455.7 449.62C456.68 463.83 451.5 476.99 451.5 476.99Z" fill="#DB8B8B"/>
<path id="Vector_36" opacity="0.1" d="M455.7 449.59C441.83 457.83 417.7 460.16 407.86 460.77C409.86 450.05 410.48 434.99 410.48 434.99C410.48 434.99 426.48 407.99 445.48 425.99C452.48 432.62 455.14 441.29 455.7 449.59Z" fill="black"/>
<path id="Vector_37" d="M489.48 424.99C478.846 430.653 468.797 437.352 459.48 444.99C443.48 457.99 403.48 458.99 403.48 458.99V443.99C404.48 425.99 387.48 405.99 364.48 349.99C349.79 314.23 353.86 293.99 358.72 283.99C361.48 278.34 364.48 275.99 364.48 275.99L489.48 299.99L493.95 313.39L503.48 341.99C503.48 341.99 468.48 343.99 462.48 346.99C456.48 349.99 460.48 376.99 460.48 376.99C454.48 404.99 489.48 424.99 489.48 424.99Z" fill="#ABB1D1"/>
<path id="Vector_38" opacity="0.1" d="M565.48 246.99L564.3 261.91C546.9 266.91 534.48 250.99 534.48 250.99C532.665 251.477 530.882 252.074 529.14 252.78C529.89 244.03 530.48 237.99 530.48 237.99L565.48 246.99Z" fill="black"/>
<path id="Vector_39" opacity="0.1" d="M493.95 313.39C493.48 318.06 493.48 320.99 493.48 320.99C493.48 320.99 470.48 339.99 431.48 310.99C392.48 281.99 357.48 289.99 357.48 289.99C357.48 289.99 357.89 287.67 358.72 283.99C361.48 278.34 364.48 275.99 364.48 275.99L489.48 299.99L493.95 313.39Z" fill="black"/>
<path id="Vector_40" d="M578.96 207.94C576.35 228.29 575.48 253.94 575.48 253.94C552.48 271.94 534.48 248.94 534.48 248.94C512.76 254.77 502.55 273.78 497.74 290.37C495.164 299.344 493.732 308.607 493.48 317.94C493.48 317.94 487.4 322.94 476.2 323.94C465.61 324.83 450.43 322.07 431.48 307.94C392.48 278.94 357.48 286.94 357.48 286.94C357.48 286.94 364.48 246.94 380.48 234.94C396.48 222.94 408.48 207.94 428.48 161.94C448.48 115.94 489.48 126.94 489.48 126.94C489.48 126.94 491.48 117.94 528.48 126.94C537.492 129.302 545.834 133.721 552.85 139.85C572.64 156.49 582.24 182.3 578.96 207.94Z" fill="white"/>
<path id="Vector_41" d="M541.85 149.49C541.8 150.82 541.69 152.3 541.51 153.95C539.51 171.95 537.51 169.95 515.51 173.95C501.83 176.44 494.72 165.01 491.3 156.01C490.062 152.75 489.128 149.382 488.51 145.95L536.51 137.95C536.51 137.95 542.26 136.34 541.85 149.49Z" fill="#DB8B8B"/>
<path id="Vector_42" opacity="0.05" d="M497.74 290.42C495.164 299.394 493.732 308.657 493.48 317.99C493.48 317.99 487.4 322.99 476.2 323.99C475.884 323.353 475.643 322.682 475.48 321.99C473.48 312.99 458.48 296.99 458.48 296.99C448.48 287.99 446.48 271.99 446.48 271.99L429.98 223.49L424.48 218.99C424.48 218.99 447.48 200.99 467.48 215.99C487.48 230.99 481.48 262.99 481.48 262.99L485.48 273.99C489.63 277.49 493.85 283.66 497.74 290.42Z" fill="black"/>
<path id="Vector_43" d="M427.48 217.99L449.48 270.99C449.48 270.99 451.48 286.99 461.48 295.99C461.48 295.99 476.48 311.99 478.48 320.99C480.48 329.99 508.48 353.99 508.48 353.99C508.48 353.99 534.48 377.99 536.48 386.99C536.48 386.99 560.48 393.99 557.48 407.99C557.48 407.99 575.48 389.99 557.48 372.99C539.48 355.99 515.48 320.99 515.48 320.99C515.48 320.99 501.48 283.99 488.48 272.99L484.48 261.99C484.48 261.99 490.48 229.99 470.48 214.99C450.48 199.99 427.48 217.99 427.48 217.99Z" fill="#DB8B8B"/>
<path id="Vector_44" opacity="0.1" d="M440.48 596.99L414.48 610.99L406.48 604.99V600.99C415.464 600.352 424.193 597.718 432.03 593.28C434.43 591.92 436.69 590.58 438.5 589.4C439.55 594.03 440.48 596.99 440.48 596.99Z" fill="black"/>
<path id="Vector_45" opacity="0.1" d="M470.48 175.99L484.48 230.99C484.48 230.99 441.48 237.99 432.48 230.99C423.48 223.99 406.48 221.99 406.48 221.99C406.48 221.99 424.48 169.99 434.48 163.99C444.48 157.99 470.48 175.99 470.48 175.99Z" fill="black"/>
<path id="Vector_46" d="M470.48 173.99L484.48 228.99C484.48 228.99 441.48 235.99 432.48 228.99C423.48 221.99 406.48 219.99 406.48 219.99C406.48 219.99 424.48 167.99 434.48 161.99C444.48 155.99 470.48 173.99 470.48 173.99Z" fill="white"/>
<path id="Vector_47" opacity="0.1" d="M541.85 148.49C539.049 152.356 535.487 155.609 531.383 158.047C527.278 160.485 522.718 162.058 517.983 162.669C513.248 163.28 508.439 162.915 503.85 161.598C499.261 160.281 494.99 158.039 491.3 155.01C490.062 151.75 489.128 148.382 488.51 144.95L536.51 136.95C536.51 136.95 542.26 135.34 541.85 148.49Z" fill="black"/>
<path id="Vector_48" d="M548.48 126.99C548.48 136.273 544.793 145.175 538.229 151.739C531.665 158.303 522.763 161.99 513.48 161.99C504.197 161.99 495.295 158.303 488.731 151.739C482.168 145.175 478.48 136.273 478.48 126.99C478.48 126.41 478.48 125.83 478.48 125.25C478.711 115.967 482.62 107.157 489.346 100.756C496.073 94.3555 505.067 90.8893 514.35 91.12C523.633 91.3508 532.443 95.2595 538.844 101.986C545.245 108.713 548.711 117.707 548.48 126.99Z" fill="#DB8B8B"/>
<path id="Vector_49" opacity="0.1" d="M548.48 126.99C548.483 130.216 548.039 133.426 547.16 136.53C544.455 137.12 541.633 136.861 539.08 135.79C535.34 134.32 532.13 131.79 528.54 129.97C518.43 124.85 506.4 125.86 495.2 127.55C489.64 128.39 483.33 129.17 478.96 125.63C478.81 125.511 478.666 125.385 478.53 125.25C478.761 115.967 482.67 107.157 489.396 100.756C496.123 94.3555 505.117 90.8893 514.4 91.12C523.683 91.3508 532.493 95.2595 538.894 101.986C545.295 108.713 548.761 117.707 548.53 126.99H548.48Z" fill="black"/>
<path id="Vector_50" d="M453.16 105.34C455.29 112.02 465.52 112.23 470.77 117.15C473.5 119.71 474.77 123.49 477.77 125.77C481.94 128.95 487.96 128.25 493.27 127.49C503.96 125.97 515.44 125.06 525.08 129.67C528.5 131.3 531.57 133.58 535.14 134.91C538.71 136.24 543.14 136.4 546.04 134.04C548.36 132.15 549.21 129.04 551.31 126.96C552.94 125.32 555.21 124.4 557.07 122.96C561.15 119.88 562.91 114.86 564.07 110.06C566.47 100.18 567.16 89.53 563.07 80.16C558.98 70.79 549.14 63.16 538.4 63.65C535.11 63.8 531.9 64.65 528.62 65.01C520.07 65.88 511.62 63.01 503.04 62.52C500.551 62.2172 498.027 62.5616 495.71 63.52C493.963 64.4908 492.457 65.8406 491.3 67.47C487.372 72.6154 484.682 78.5969 483.44 84.95C482.44 89.74 482.39 94.08 476.52 94.82C469.85 95.7 448.65 91.21 453.16 105.34Z" fill="#472727"/>
<path id="Vector_51" opacity="0.05" d="M384.98 234.49C384.98 234.49 410.98 241.49 418.98 259.49C426.98 277.49 448.62 280.78 448.62 280.78" fill="black"/>
<path id="Vector_52" d="M482.98 630.49H422.98V649.49H482.98V630.49Z" fill="#6C63FF"/>
<path id="Vector_53" opacity="0.1" d="M482.98 630.49H422.98V649.49H482.98V630.49Z" fill="black"/>
<path id="Vector_54" d="M431.99 595.23C437.36 592.23 442.07 589.23 442.48 587.99C442.48 587.99 456.03 602.29 468.1 606.73C472.159 608.229 476.044 610.16 479.69 612.49C484.47 615.49 491.29 619.02 497.48 619.02C497.48 619.02 511.48 631.02 484.48 633.02C457.48 635.02 394.48 628.02 394.48 628.02L398.48 603.02C410.167 603.705 421.804 601 431.99 595.23Z" fill="#ABB1D1"/>
</g>
<g id="RightWheel">
<path id="Vector_55" d="M680.847 716.78L674.587 618.88L674.457 618.67L668.137 620.87L639.047 705.68L592.797 672.88L666.487 619.47L666.557 619.26L666.977 619.11L671.727 615.66L594.487 572.35L575.557 593.15L578.557 612.65L667.357 614.23V616.23L576.877 614.61L573.477 592.5L599.367 564.05L638.087 518.88L638.777 520.75L646.977 511.75L677.517 517.22V516.01L679.517 516.07V517.58L724.877 525.7L682.547 610.35L676.377 614.82V615.32V615.88L774.187 581.8L762.577 673.01L679.577 620.14L676.657 618.5L725.597 697.39L680.847 716.78ZM676.847 622.44L682.697 713.82L722.747 696.44L676.847 622.44ZM596.277 672.88L638.067 702.51L665.407 622.77L596.277 672.88ZM678.597 617.22L680.687 618.39L761.037 669.59L771.837 584.72L678.597 617.22ZM671.497 610.02L674.007 614.07L674.447 613.75L677.447 519.22L647.707 513.88L639.547 522.88L671.497 610.02ZM596.107 570.97L670.947 612.97L669.647 610.84L638.067 524.57L600.867 565.45L596.107 570.97ZM679.477 519.58L676.477 612.27L680.997 608.99L721.907 527.17L679.477 519.58Z" fill="#535461"/>
<path id="Vector_56" d="M675.757 498C665.144 497.988 654.578 499.415 644.347 502.24C639.071 503.695 633.904 505.523 628.887 507.71C602.157 519.297 580.674 540.387 568.594 566.898C556.514 593.41 554.697 623.459 563.492 651.233C572.287 679.008 591.071 702.533 616.209 717.259C641.348 731.984 671.054 736.863 699.582 730.952C728.109 725.04 753.431 708.759 770.648 685.257C787.865 661.755 795.754 632.702 792.789 603.72C789.823 574.738 776.215 547.885 754.595 528.356C732.975 508.828 704.881 498.012 675.747 498H675.757ZM675.357 704.09C655.076 704.082 635.408 697.137 619.62 684.407C603.831 671.678 592.872 653.931 588.562 634.113C584.252 614.295 586.851 593.599 595.928 575.463C605.004 557.326 620.011 542.84 638.457 534.41C643.149 532.262 648.021 530.532 653.017 529.24C665.229 526.07 677.977 525.537 690.411 527.678C702.845 529.818 714.681 534.581 725.13 541.652C735.58 548.722 744.404 557.937 751.015 568.683C757.627 579.429 761.873 591.46 763.473 603.975C765.073 616.49 763.989 629.202 760.293 641.265C756.598 653.329 750.375 664.467 742.04 673.939C733.704 683.41 723.447 690.998 711.951 696.196C700.455 701.395 687.984 704.086 675.367 704.09H675.357Z" fill="#535461"/>
</g>
<g id="LeftWheel">
<path id="Vector_57" d="M255.725 714.778L249.455 616.838L249.325 616.628L243.005 618.828L213.925 703.678L167.675 670.888L241.345 617.478L241.415 617.268L241.835 617.118L246.585 613.668L169.345 570.358L150.425 591.158L153.425 610.658L242.245 612.278V614.278L151.765 612.658L148.345 590.518L174.245 562.058L212.995 516.858L213.685 518.728L221.885 509.728L252.345 515.188V513.978L254.345 514.038V515.548L299.705 523.668L257.415 608.278L251.245 612.748V613.248V613.808L349.045 579.728L337.435 670.938L254.435 618.068L251.515 616.428L300.455 695.308L255.725 714.778ZM251.725 620.438L257.575 711.818L297.625 694.438L251.725 620.438ZM171.145 670.868L212.935 700.498L240.275 620.758L171.145 670.868ZM253.465 615.208L255.555 616.378L335.905 667.578L346.705 582.708L253.465 615.208ZM246.365 608.008L248.875 612.058L249.315 611.738L252.315 517.208L222.575 511.888L214.415 520.888L246.365 608.008ZM170.945 568.948L245.785 610.948L244.485 608.818L212.905 522.548L175.715 563.418L170.945 568.948ZM254.345 517.558L251.345 610.278L255.865 606.998L296.775 525.178L254.345 517.558Z" fill="#535461"/>
<path id="Vector_58" d="M365.415 587.738C361.405 569.919 353.285 553.283 341.705 539.158C337.406 533.909 332.666 529.038 327.535 524.598C307.809 507.567 282.986 497.568 256.962 496.17C230.938 494.771 205.187 502.053 183.749 516.873C162.311 531.693 146.401 553.211 138.515 578.05C130.629 602.89 131.214 629.645 140.178 654.116C149.142 678.587 165.978 699.39 188.042 713.258C210.107 727.127 236.152 733.277 262.09 730.743C288.028 728.208 312.39 717.134 331.353 699.257C350.317 681.379 362.807 657.712 366.865 631.968C367.809 625.907 368.284 619.783 368.285 613.648C368.292 604.932 367.329 596.242 365.415 587.738ZM250.225 702.088C231.993 702.069 214.209 696.435 199.292 685.953C184.374 675.47 173.047 660.648 166.851 643.501C160.655 626.354 159.89 607.715 164.66 590.118C169.43 572.521 179.505 556.82 193.513 545.15C207.521 533.48 224.783 526.408 242.953 524.895C261.122 523.381 279.316 527.501 295.062 536.693C310.807 545.884 323.34 559.703 330.956 576.268C338.571 592.834 340.9 611.343 337.625 629.278C333.875 649.722 323.076 668.203 307.107 681.506C291.137 694.809 271.01 702.093 250.225 702.088Z" fill="#535461"/>
</g>
</g>
<defs>
<linearGradient id="paint0_linear" x1="732.018" y1="123.964" x2="77.3209" y2="624.732" gradientUnits="userSpaceOnUse">
<stop stop-color="#EE8F00"/>
<stop offset="1" stop-color="#FF6363" stop-opacity="0.97"/>
</linearGradient>
</defs>
</svg>
